<svg width="60" height="60" viewBox="0 0 60 60" fill="none" xmlns="http://www.w3.org/2000/svg">
<path d="M45.8061 0H14.1939C6.35437 0 0 6.35437 0 14.1939V45.8061C0 53.6456 6.35437 60 14.1939 60H45.8061C53.6456 60 60 53.6456 60 45.8061V14.1939C60 6.35437 53.6456 0 45.8061 0ZM18.5607 47.6309C15.1434 47.6309 12.3738 44.8614 12.3738 41.444C12.3738 38.0267 15.1434 35.2571 18.5607 35.2571C21.978 35.2571 24.7476 38.0267 24.7476 41.444C24.7476 44.8614 21.9765 47.6309 18.5607 47.6309ZM47.6262 41.632C47.6262 44.9451 44.9404 47.6294 41.6289 47.6294C40.0379 47.6294 38.5133 46.9974 37.3884 45.8725L25.7603 34.2444C23.776 32.2553 21.1675 31.2616 18.5623 31.2616C17.3916 31.2616 16.2193 31.4622 15.1023 31.8651C13.7752 32.3438 12.3738 31.3627 12.3738 29.9502V18.7456C12.3738 15.2255 15.2271 12.3738 18.7456 12.3738C20.4361 12.3738 22.0555 13.0453 23.2514 14.2397L45.8678 36.8528C46.9927 37.9777 47.6246 39.5039 47.6246 41.0949V41.632H47.6262ZM47.6262 27.928C47.6262 29.7433 45.4317 30.6533 44.1472 29.3688L30.628 15.8528C29.3436 14.5683 30.2536 12.3738 32.0689 12.3738H45.5881C46.713 12.3738 47.6262 13.2854 47.6262 14.4119V27.928Z" fill="#F91632"/>
</svg>
